<?xml version="1.0" encoding="utf-8"?>
<svg version="1.1" xmlns="http://www.w3.org/2000/svg" xmlns:xlink="http://www.w3.org/1999/xlink" viewBox="0 0 100 70" style="enable-background:new 0 0 100 70;" xml:space="preserve">
<path style="fill:#fff;" d="M31.8,31.5v29.4c0,4.2,3.4,7.6,7.6,7.6h52.2c4.2,0,7.6-3.4,7.6-7.6V31.5H31.8z M70.7,50.3c-1.2,1.2-6.9,6.9-6.9,6.9c-1,1-2.5,1-3.5,0c-1-1-1-2.5,0-3.5l5.2-5.2l-5.2-5.2c-1-1-1-2.5,0-3.5c1-1,2.5-1,3.5,0c0,0,6.2,6.2,6.9,6.9c0.5,0.5,0.7,1.1,0.7,1.8C71.4,49.2,71.2,49.8,70.7,50.3z"/>
<path style="fill:#fff;" d="M91.6,15.8H39.4c-4.2,0-7.6,3.4-7.6,7.6v3h67.3v-3C99.2,19.1,95.8,15.8,91.6,15.8z M39.5,23.2c-1.2,0-2.1-1-2.1-2.1s1-2.1,2.1-2.1c1.2,0,2.1,1,2.1,2.1S40.7,23.2,39.5,23.2z M46.3,23.2c-1.2,0-2.1-1-2.1-2.1s1-2.1,2.1-2.1s2.1,1,2.1,2.1S47.5,23.2,46.3,23.2z M53.2,23.2c-1.2,0-2.1-1-2.1-2.1s1-2.1,2.1-2.1s2.1,1,2.1,2.1S54.4,23.2,53.2,23.2z"/>
<path style="fill:#fff;" d="M27.3,35.8V21.9c0-2.3,0.7-4.4,2-6.2H12.7v20.1H27.3z"/>
<path style="fill:#fff;" d="M12.9,46.9c0.8,3.3,3.8,5.8,7.3,5.8h7.1v-5.8H12.9z"/>
<path style="fill:#fff;" d="M80,10.6v-3C80,3.4,76.6,0,72.5,0H20.2c-4.2,0-7.6,3.4-7.6,7.6v3H80z"/>
<path style="fill:#fff;" d="M8.5,39c-2.3,0-4.2-1.9-4.2-4.2s1.9-4.2,4.2-4.2h11.2v-4.2H8.3c-4.6,0-8.3,3.8-8.3,8.4c0,4.6,3.7,8.4,8.3,8.4h29.8c3.1,0,5.7-1.7,7.2-4.3c-0.2,0-0.4,0.1-0.6,0.1H8.5z"/>
</svg>
