<?xml version="1.0" encoding="iso-8859-1"?>
<!DOCTYPE svg PUBLIC "-//W3C//DTD SVG 1.1//EN" "http://www.w3.org/Graphics/SVG/1.1/DTD/svg11.dtd">
<svg version="1.1" id="Layer_55" xmlns="http://www.w3.org/2000/svg" xmlns:xlink="http://www.w3.org/1999/xlink" x="0px" y="0px"
     width="40px" height="40px" viewBox="0 0 40 40" style="enable-background:new 0 0 40 40;" xml:space="preserve">
<g>
    <path d="M35.533,28.125c-1.165,0.644-2.633,0.22-3.277-0.945
	c-0.101-0.183-0.175-0.371-0.225-0.564l-6.688,2.542c1.957,0.787,3.277,1.311,3.277,1.311c0.05-0.192,0.125-0.382,0.226-0.564
	c0.644-1.165,2.111-1.588,3.277-0.944c1.165,0.644,1.589,2.112,0.944,3.277c-0.644,1.167-2.111,1.589-3.277,0.944
	c1.166,0.646,1.589,2.112,0.945,3.278c-0.645,1.165-2.112,1.589-3.278,0.944c-1.166-0.644-1.589-2.111-0.944-3.277
	c0.101-0.182,0.222-0.347,0.357-0.491l-6.656-2.529l-6.656,2.529c0.136,0.145,0.257,0.31,0.357,0.491
	c0.644,1.166,0.221,2.634-0.944,3.277c-1.167,0.645-2.634,0.221-3.278-0.944c-0.644-1.166-0.221-2.633,0.945-3.278
	c-1.166,0.645-2.633,0.223-3.277-0.944c-0.644-1.165-0.221-2.634,0.945-3.277s2.633-0.221,3.277,0.944
	c0.101,0.183,0.175,0.372,0.225,0.564c0,0,1.32-0.523,3.278-1.311l-6.688-2.542c-0.05,0.193-0.124,0.382-0.225,0.564
	c-0.645,1.165-2.112,1.589-3.278,0.945c-1.166-0.645-1.588-2.112-0.945-3.278c0.644-1.166,2.112-1.588,3.278-0.945c0,0,0,0,0,0.001
	l0,0c0-0.001,0-0.001,0-0.001c-1.166-0.645-1.589-2.111-0.945-3.277c0.644-1.166,2.112-1.589,3.277-0.944
	c1.166,0.644,1.588,2.112,0.944,3.278c0.433,0.199,0.937,0.423,1.468,0.656c0-1.295,0-3.74,0-4.696
	c-1.702,0-3.001-1.037-3.001-2.734c0-2.001,0-4.374,0-6.604c0-5.015,6.705-8.45,10.982-8.492V1.087c0.003,0,0.007,0,0.011,0.001
	c0.004-0.001,0.008-0.001,0.012-0.001v0.001C24.253,1.13,30.982,4.212,30.982,9.58c0,2.737,0,3.755,0,6.604
	c0,1.751-1.351,2.734-3.001,2.734c0,0.95,0,3.588,0,4.905c0.722-0.315,1.38-0.607,1.941-0.865c-0.644-1.166-0.221-2.635,0.944-3.278
	c1.166-0.645,2.634-0.222,3.277,0.944c0.645,1.166,0.221,2.633-0.944,3.277c0,0,0,0,0,0.001l0,0c0-0.001,0-0.001,0-0.001
	c1.166-0.643,2.634-0.221,3.278,0.945C37.122,26.013,36.699,27.48,35.533,28.125z M15.809,24.011c1.188,1.046,7.336,1.105,8.337,0
	c0.103-0.135,0.834-1.324,0.834-2.547c0-1.267,0-1.697,0-1.697c0-0.587-0.834-0.689-0.834,0c0,0.412-0.565,2.206-0.834,2.546
	c-0.425,0.541-1.726,0.85-3.335,0.85c-1.61,0-2.91-0.309-3.335-0.85c-0.267-0.341-0.833-2.134-0.833-2.546
	c0-0.713-0.835-0.624-0.834,0C14.975,22.162,15.465,23.49,15.809,24.011z M15.576,12.126c-1.206,0.073-2.52,0.471-2.854,1.267
	c-0.396,0.942-0.313,2.167,0,2.575c0.4,0.521,1.332,0.478,2.7,0.274c1.288-0.192,2.517-0.93,2.517-2.171
	S16.878,12.047,15.576,12.126z M21.619,18.817c-0.161-0.482-0.484-1.242-1.037-2.082c-0.14-0.213-0.417-0.346-0.63-0.359
	c-0.214,0.014-0.49,0.146-0.63,0.359c-0.553,0.84-0.875,1.6-1.037,2.082c-0.157,0.469,0.244,0.946,0.721,0.946
	c0.7,0,0.581-0.838,0.971-0.846c0.371-0.008,0.199,0.846,0.92,0.846C21.375,19.764,21.776,19.286,21.619,18.817z M27.209,13.393
	c-0.336-0.796-1.649-1.193-2.855-1.267c-1.302-0.079-2.362,0.704-2.362,1.945s1.229,1.979,2.517,2.171
	c1.367,0.203,2.301,0.246,2.701-0.274C27.521,15.56,27.604,14.335,27.209,13.393z"/>
	</g>
</svg>
