<?xml version="1.0" encoding="iso-8859-1"?>
<!DOCTYPE svg PUBLIC "-//W3C//DTD SVG 1.1//EN" "http://www.w3.org/Graphics/SVG/1.1/DTD/svg11.dtd">
<svg version="1.1" id="Layer_55" xmlns="http://www.w3.org/2000/svg" xmlns:xlink="http://www.w3.org/1999/xlink" x="0px" y="0px"
     width="40px" height="40px" viewBox="0 0 40 40" style="enable-background:new 0 0 40 40;" xml:space="preserve">
<g>
    <path d="M19.854,2h0.278c1.575,0,2.859,1.285,2.859,2.861v14.276
	c0,1.574-1.284,2.86-2.859,2.86h-0.278c-1.575,0-2.86-1.286-2.86-2.86V4.861C16.993,3.285,18.278,2,19.854,2L19.854,2z M28.341,8.35
	c-0.697-0.427-1.511-0.444-2.224-0.043c-0.714,0.398-1.126,1.101-1.126,1.918v1.925c0,0.725,0.316,1.347,0.9,1.774
	c2.484,1.819,4.099,4.758,4.099,8.073c0,5.521-4.478,9.998-9.997,9.998c-5.521,0-9.998-4.477-9.998-9.998
	c0-3.315,1.614-6.253,4.098-8.073c0.585-0.428,0.9-1.051,0.9-1.775v-1.924c0-0.817-0.411-1.52-1.125-1.918
	c-0.713-0.4-1.527-0.384-2.225,0.043c-4.587,2.813-7.647,7.873-7.647,13.646c0,8.833,7.163,15.997,15.997,15.997
	c8.832,0,15.996-7.164,15.996-15.997C35.989,16.223,32.928,11.163,28.341,8.35z"/>
	</g>
</svg>
