<?xml version="1.0" encoding="iso-8859-1"?>
<!DOCTYPE svg PUBLIC "-//W3C//DTD SVG 1.1//EN" "http://www.w3.org/Graphics/SVG/1.1/DTD/svg11.dtd">
<svg version="1.1" id="Layer_55" xmlns="http://www.w3.org/2000/svg" xmlns:xlink="http://www.w3.org/1999/xlink" x="0px" y="0px"
     width="40px" height="40px" viewBox="0 0 40 40" style="enable-background:new 0 0 40 40;" xml:space="preserve">
<g>
    <path d="M35.513,18.294l-15.997,1.215l8.181-13.802c0.207-0.35,0.253-0.729,0.136-1.118c-0.118-0.389-0.366-0.68-0.732-0.855
	C19.006-0.17,9.126,2.71,4.46,10.584c-4.928,8.314-2.182,19.054,6.132,23.981s19.053,2.182,23.981-6.132
	c1.571-2.65,2.41-5.665,2.445-8.728c0.005-0.407-0.146-0.759-0.442-1.037C36.28,18.391,35.919,18.264,35.513,18.294z M22.405,6.263
	c-0.005-0.532,0.045-0.9,0.5-0.898c0.63,0.003,1.137,0.713,1.133,1.585c-0.005,0.871-0.52,1.575-1.149,1.571
	c-0.456-0.002-0.501-0.373-0.49-0.908c-0.645,0.377-1.779,0.234-1.774-0.684C20.629,6.021,21.765,5.883,22.405,6.263z M6.35,11.341
	c0.628-1.088,1.775-1.602,2.562-1.147c0.569,0.328,0.362,0.825-0.034,1.487c1.075-0.012,2.394,0.978,1.733,2.123
	c-0.654,1.133-2.176,0.496-2.706-0.438c-0.375,0.671-0.701,1.097-1.269,0.769C5.85,13.68,5.722,12.43,6.35,11.341z M6.337,22.049
	c-1.158-0.892-1.373-2.556-0.48-3.713l2.097,1.616l2.097,1.616C9.158,22.727,7.496,22.941,6.337,22.049z M11.133,28.863
	c0.619,0.567,0.989,1.021,0.498,1.541c-0.68,0.722-2.041,0.544-3.039-0.397s-1.255-2.288-0.575-3.01
	c0.492-0.522,0.968-0.178,1.571,0.41c0.258-1.146,1.64-2.298,2.691-1.308C13.317,27.079,12.258,28.536,11.133,28.863z M13.683,5.391
	c1.066-0.873,2.639-0.718,3.513,0.349l-1.93,1.582l-1.931,1.582C12.46,7.837,12.617,6.265,13.683,5.391z M17.055,32.006
	c-0.255,1.14-1.387,1.857-2.527,1.603l0.463-2.064l0.463-2.065C16.593,29.733,17.31,30.866,17.055,32.006z M15.085,22.446
	c-1.175,0.067-2.167-0.566-2.215-1.416c-0.035-0.615,0.46-0.708,1.183-0.738c-0.562-0.836-0.465-2.378,0.771-2.448
	c1.223-0.07,1.507,1.449,1.048,2.344c0.718-0.052,1.219-0.014,1.254,0.599C17.175,21.637,16.261,22.38,15.085,22.446z
	 M18.599,13.938c-0.144,0.373-0.462,0.295-0.896,0.119c0.108,0.645-0.362,1.53-1.112,1.24c-0.742-0.286-0.502-1.261,0.009-1.666
	c-0.438-0.161-0.724-0.318-0.581-0.689c0.199-0.516,0.938-0.71,1.65-0.435C18.381,12.783,18.797,13.423,18.599,13.938z
	 M22.818,23.334c1.363,0.221,2.289,1.504,2.068,2.867l-2.468-0.399l-2.468-0.399C20.172,24.039,21.456,23.113,22.818,23.334z
	 M25.295,33.547c-0.603,0.308-0.916-0.149-1.266-0.862c-0.592,0.936-2.185,1.521-2.804,0.309c-0.612-1.198,0.79-2.156,1.893-2.091
	c-0.37-0.7-0.555-1.22,0.046-1.526c0.833-0.426,1.985,0.164,2.573,1.316C26.327,31.844,26.128,33.122,25.295,33.547z M33.35,25.469
	c-0.475,1.291-1.617,2.059-2.551,1.715c-0.676-0.249-0.544-0.823-0.24-1.611c-1.158,0.213-2.766-0.609-2.266-1.968
	c0.495-1.344,2.256-0.94,3.001-0.031c0.279-0.794,0.552-1.314,1.226-1.065C33.454,22.852,33.825,24.177,33.35,25.469z
	 M37.619,14.539c-0.673-3.699-2.73-7.011-5.749-9.255c-0.33-0.245-0.708-0.33-1.11-0.249s-0.719,0.305-0.928,0.658l-6.819,11.505
	l13.335-1.013c0.41-0.031,0.75-0.215,1.001-0.54C37.601,15.32,37.693,14.944,37.619,14.539z M33.859,11.703
	c-0.161,0.542-0.618,0.468-1.25,0.269c0.224,0.897-0.34,2.198-1.43,1.874c-1.078-0.321-0.849-1.722-0.173-2.352
	c-0.637-0.179-1.058-0.367-0.896-0.907c0.222-0.749,1.243-1.105,2.279-0.798C33.423,10.099,34.082,10.955,33.859,11.703z"/>
	</g>
</svg>
