<?xml version="1.0" encoding="iso-8859-1"?>
<!DOCTYPE svg PUBLIC "-//W3C//DTD SVG 1.1//EN" "http://www.w3.org/Graphics/SVG/1.1/DTD/svg11.dtd">
<svg version="1.1" id="Layer_55" xmlns="http://www.w3.org/2000/svg" xmlns:xlink="http://www.w3.org/1999/xlink" x="0px" y="0px"
     width="40px" height="40px" viewBox="0 0 40 40" style="enable-background:new 0 0 40 40;" xml:space="preserve">
<g>
    <path d="M19.493,3.974c5.106,0,11.489-3.301,14.042,2.201
	c1.189,2.563-0.096,7.755-2.591,12.568c-0.211,0.406-0.285,0.811-0.232,1.267c0.173,1.491,0.27,3.139,0.27,4.872
	c0,6.684-1.429,12.104-3.19,12.104c-6.805,0-1.806-14.306-8.298-14.306s-1.506,14.306-8.298,14.306
	c-1.762,0-3.191-5.421-3.191-12.104c0-1.733,0.096-3.382,0.27-4.872c0.052-0.456-0.021-0.86-0.232-1.267
	C5.546,13.93,4.262,8.738,5.451,6.175C8.004,0.673,14.387,3.974,19.493,3.974z"/>
	</g>
</svg>
