<?xml version="1.0" encoding="iso-8859-1"?>
<!DOCTYPE svg PUBLIC "-//W3C//DTD SVG 1.1//EN" "http://www.w3.org/Graphics/SVG/1.1/DTD/svg11.dtd">
<svg version="1.1" id="Layer_55" xmlns="http://www.w3.org/2000/svg" xmlns:xlink="http://www.w3.org/1999/xlink" x="0px" y="0px"
     width="40px" height="40px" viewBox="0 0 40 40" style="enable-background:new 0 0 40 40;" xml:space="preserve">
<g>
    <path d="M4.212,1.982h22.594c1.212,0,2.2,0.989,2.2,2.2v2.599
	c0,1.212-0.988,2.199-2.2,2.199H4.212c-1.212,0-2.2-0.987-2.2-2.199V4.182C2.012,2.971,3,1.982,4.212,1.982L4.212,1.982z
	 M13.209,28.976h22.595c1.212,0,2.199,0.988,2.199,2.2v2.598c0,1.212-0.987,2.2-2.199,2.2H13.209c-1.212,0-2.199-0.988-2.199-2.2
	v-2.598C11.01,29.964,11.997,28.975,13.209,28.976L13.209,28.976z M13.209,19.979h22.595c1.212,0,2.199,0.988,2.199,2.199v2.6
	c0,1.212-0.987,2.2-2.199,2.2H13.209c-1.212,0-2.199-0.988-2.199-2.2v-2.6C11.01,20.966,11.997,19.978,13.209,19.979L13.209,19.979z
	 M4.011,31.775c0-6.712,0-13.424,0-20.136c0-0.363,0.297-0.66,0.66-0.66h1.68c0.363,0,0.66,0.297,0.66,0.66v1.34H8.35
	c0.363,0,0.66,0.296,0.66,0.66v1.679c0,0.363-0.297,0.661-0.66,0.661H7.011v5.998H8.35c0.363,0,0.66,0.296,0.66,0.66v1.679
	c0,0.364-0.297,0.66-0.66,0.66H7.011v5.999H8.35c0.363,0,0.66,0.296,0.66,0.659v1.68c0,0.363-0.297,0.659-0.66,0.659H6.211
	C4.999,33.975,4.011,32.986,4.011,31.775L4.011,31.775z M13.209,10.979h22.595c1.212,0,2.199,0.989,2.199,2.2v2.599
	c0,1.212-0.987,2.2-2.199,2.2H13.209c-1.212,0-2.199-0.988-2.199-2.2V13.18C11.01,11.968,11.997,10.979,13.209,10.979z"/>
	</g>
</svg>
