<?xml version="1.0" encoding="iso-8859-1"?>
<!DOCTYPE svg PUBLIC "-//W3C//DTD SVG 1.1//EN" "http://www.w3.org/Graphics/SVG/1.1/DTD/svg11.dtd">
<svg xmlns="http://www.w3.org/2000/svg" viewBox="0 0 32 32">
    <path d="M 23 2.625 L 22.28125 3.34375 L 17.625 8 L 13.90625 8 C 13.437913 5.7272522 11.405882 4 9 4 C 6.2504209 4 4 6.2504209 4 9 C 4 11.405882 5.7272522 13.437913 8 13.90625 L 8 18 L 5 18 L 4 18 L 4 19 L 4 27 L 4 28 L 5 28 L 13 28 L 14 28 L 14 27 L 14 19 L 14 18 L 13 18 L 10 18 L 10 13.90625 C 11.94807 13.504819 13.504819 11.94807 13.90625 10 L 17.5 10 L 22 14.5 L 22 18.09375 C 19.727252 18.562087 18 20.594118 18 23 C 18 25.749579 20.250421 28 23 28 C 25.749579 28 28 25.749579 28 23 C 28 20.594118 26.272748 18.562087 24 18.09375 L 24 14.5 L 28.71875 9.78125 L 29.4375 9.0625 L 28.71875 8.34375 L 23.71875 3.34375 L 23 2.625 z M 23 5.46875 L 26.59375 9.0625 L 23 12.65625 L 19.40625 9.0625 L 23 5.46875 z M 9 6 C 10.668699 6 12 7.3313011 12 9 C 12 10.668699 10.668699 12 9 12 C 7.3313011 12 6 10.668699 6 9 C 6 7.3313011 7.3313011 6 9 6 z M 6 20 L 12 20 L 12 26 L 6 26 L 6 20 z M 23 20 C 24.668699 20 26 21.331301 26 23 C 26 24.668699 24.668699 26 23 26 C 21.331301 26 20 24.668699 20 23 C 20 21.331301 21.331301 20 23 20 z"></path>
</svg>
