<?xml version="1.0" encoding="iso-8859-1"?>
<!DOCTYPE svg PUBLIC "-//W3C//DTD SVG 1.1//EN" "http://www.w3.org/Graphics/SVG/1.1/DTD/svg11.dtd">
<svg version="1.1" id="Layer_55" xmlns="http://www.w3.org/2000/svg" xmlns:xlink="http://www.w3.org/1999/xlink" x="0px" y="0px"
     width="40px" height="40px" viewBox="0 0 40 40" style="enable-background:new 0 0 40 40;" xml:space="preserve">
<g>
    <path d="M7.41,1.997h24.734c1.576,0,2.859,1.286,2.859,2.861v0.279
	c0,1.575-1.283,2.86-2.859,2.86H19.209c-1.213,0-2.201,0.988-2.201,2.2v19.595c0,1.212,0.988,2.201,2.201,2.201h12.936
	c1.576,0,2.859,1.284,2.859,2.86v0.279c0,1.576-1.283,2.861-2.859,2.861c-8.244,0-16.488,0-24.734,0
	c-2.422,0-4.398-1.978-4.398-4.401c0-9.065,0-18.13,0-27.195C3.012,3.975,4.988,1.997,7.41,1.997L7.41,1.997z M33.004,20v-0.688
	c0-0.728-0.592-1.32-1.318-1.32H21.328c-0.729,0-1.32,0.593-1.32,1.32v6.949c0,2.061,1.68,3.741,3.74,3.741h5.518
	c2.061,0,3.738-1.681,3.738-3.741v-3.26h2.68c0.727,0,1.32-0.594,1.32-1.321V21.32c0-0.728-0.594-1.32-1.32-1.32H33.004L33.004,20z
	 M10.01,14.203c-1.211,0-2.191,0.982-2.191,2.193s0.98,2.193,2.191,2.193s2.193-0.982,2.193-2.193S11.221,14.203,10.01,14.203
	L10.01,14.203z M10.01,7.998c-1.211,0-2.191,0.982-2.191,2.193c0,1.212,0.98,2.193,2.191,2.193s2.193-0.981,2.193-2.193
	C12.203,8.98,11.221,7.998,10.01,7.998L10.01,7.998z M21.328,9.991c-0.729,0-1.32,0.592-1.32,1.319v0.368
	c0,0.728,0.592,1.32,1.32,1.32h0.68v1.647c0,0.729,0.596,1.321,1.318,1.321h0.361c0.723,0,1.318-0.597,1.318-1.321v-1.647h3v1.647
	c0,0.729,0.596,1.321,1.32,1.321h0.359c0.723,0,1.32-0.597,1.32-1.321v-1.647h0.68c0.727,0,1.318-0.593,1.318-1.32v-0.368
	c0-0.728-0.592-1.319-1.318-1.319H21.328z"/>
	</g>
</svg>
