<?xml version="1.0" encoding="iso-8859-1"?>
<!DOCTYPE svg PUBLIC "-//W3C//DTD SVG 1.1//EN" "http://www.w3.org/Graphics/SVG/1.1/DTD/svg11.dtd">
<svg version="1.1" id="Layer_55" xmlns="http://www.w3.org/2000/svg" xmlns:xlink="http://www.w3.org/1999/xlink" x="0px" y="0px"
     width="40px" height="40px" viewBox="0 0 40 40" style="enable-background:new 0 0 40 40;" xml:space="preserve">
<g>
    <path d="M35.096,19.819c-0.275,0.081-0.546,0.032-0.775-0.14
	c-0.229-0.171-0.353-0.417-0.353-0.704v-5.987c0-0.287,0.123-0.533,0.353-0.705c0.229-0.171,0.5-0.221,0.775-0.139
	c1.659,0.487,2.872,2.021,2.872,3.838S36.755,19.333,35.096,19.819z M28.692,28.979h-1.096c-1.093,0-2.033-0.347-2.863-1.059
	l-4.527-3.88c-0.831-0.711-1.771-1.059-2.864-1.059L9.78,22.983c-4.058,0-6.828-3.302-6.82-7.193
	c0.006-3.752,3.067-6.808,6.82-6.808h7.562c1.094,0,2.034-0.348,2.864-1.06l4.528-3.881c0.83-0.711,1.77-1.059,2.864-1.059h1.095
	c1.817,0,3.3,1.482,3.3,3.301v19.396C31.992,27.498,30.509,28.979,28.692,28.979z M8.73,24.98h5.479c0.969,0,1.76,0.792,1.76,1.761
	v5.938c0,1.818-1.482,3.3-3.3,3.3H10.27c-1.817,0-3.3-1.482-3.3-3.3v-5.938C6.97,25.771,7.761,24.98,8.73,24.98z"/>
	</g>
</svg>
