<?xml version="1.0" encoding="iso-8859-1"?>
<!DOCTYPE svg PUBLIC "-//W3C//DTD SVG 1.1//EN" "http://www.w3.org/Graphics/SVG/1.1/DTD/svg11.dtd">
<svg version="1.1" id="Layer_55" xmlns="http://www.w3.org/2000/svg" xmlns:xlink="http://www.w3.org/1999/xlink" x="0px" y="0px"
     width="40px" height="40px" viewBox="0 0 40 40" style="enable-background:new 0 0 40 40;" xml:space="preserve">
<g>
    <path d="M33.438,32.333H16.667V9.653h16.771c1.216,0,2.206-0.99,2.206-2.207v-2.92c0-1.217-0.99-2.208-2.206-2.208H4.525
        c-1.218,0-2.208,0.99-2.208,2.208V36.45c0,1.217,0.99,2.207,2.208,2.207h28.912c1.216,0,2.206-0.99,2.206-2.207v-1.91
        C35.644,33.323,34.653,32.333,33.438,32.333z M34.31,36.45c0,0.481-0.391,0.874-0.872,0.874H4.525
        c-0.482,0-0.874-0.392-0.874-0.874V4.526c0-0.482,0.392-0.875,0.874-0.875h28.912c0.481,0,0.872,0.393,0.872,0.875v2.92
        c0,0.481-0.391,0.874-0.872,0.874H15.333v25.347h18.104c0.481,0,0.872,0.392,0.872,0.874V36.45z M9.501,9.333
        c-0.643,0-1.166,0.523-1.166,1.166s0.523,1.166,1.166,1.166s1.166-0.523,1.166-1.166S10.144,9.333,9.501,9.333z M9.501,17.333
        c-0.643,0-1.166,0.523-1.166,1.166s0.523,1.166,1.166,1.166s1.166-0.523,1.166-1.166S10.144,17.333,9.501,17.333z M35.656,19.322
        h-2.011v-0.454c0-0.853-0.694-1.546-1.548-1.546H20.859c-0.853,0-1.546,0.693-1.546,1.546v8.393c0,0.658,0.246,1.251,0.711,1.717
        l0.968,0.966c0.464,0.466,1.058,0.713,1.717,0.713h7.539c0.667,0,1.245-0.239,1.718-0.712l0.967-0.968
        c0.466-0.466,0.713-1.06,0.713-1.716v-0.605h2.011c1.096,0,1.987-0.891,1.987-1.987v-3.36
        C37.644,20.213,36.752,19.322,35.656,19.322z M36.31,24.669c0,0.36-0.293,0.654-0.653,0.654h-3.345v1.938
        c0,0.308-0.102,0.554-0.322,0.774l-0.967,0.968c-0.219,0.219-0.465,0.321-0.774,0.321h-7.539c-0.31,0-0.554-0.102-0.772-0.322
        l-0.969-0.967c-0.219-0.219-0.32-0.465-0.32-0.774v-8.393c0-0.118,0.095-0.213,0.212-0.213h11.238
        c0.116,0,0.214,0.098,0.214,0.213v1.787h3.345c0.36,0,0.653,0.293,0.653,0.654V24.669z M29,15.667
        c0.368,0,0.667-0.298,0.667-0.667v-2.333H32c0.368,0,0.667-0.298,0.667-0.667S32.368,11.333,32,11.333H21
        c-0.368,0-0.667,0.298-0.667,0.667s0.299,0.667,0.667,0.667h2.333V15c0,0.368,0.299,0.667,0.667,0.667s0.667-0.298,0.667-0.667
        v-2.333h3.666V15C28.333,15.368,28.632,15.667,29,15.667z M32,23.667h2v-1.333h-2V23.667z"/>
	</g>
</svg>
