<?xml version="1.0" encoding="utf-8"?>
<svg version="1.1" viewBox="0 0 500 500">
	<path d="M500,161c-30.9,19.9-60.9,39.1-92,59.1c-14.8-27.4-51.5-49.4-67-45.1c-3.1,0.9-9.3,1.7-11,3.7
		c0.2,0.4,1,1.7,1.3,2.1c27.4,34.6,38.2,75.5,40.7,118.9c1.9,32.2,1.6,64.6,2.2,96.9c0,2-0.5,4-0.8,6.1
		c-13.6-7.1-15.9-12.5-13.1-26.4c4.7-23.8,2.3-47-6.2-69.5c-1.6-4.3-4.7-9.1-8.4-11.2c-16.7-9.5-47.2-13.1-69,9.1
		c15.5,14.1,33.3,18.1,55.4,14.1c-16.8,71.9-1.1,132.9,54.4,181.4c-54-17.7-105.3-40.7-157.9-63.1c17.3-11.1,18.4-18.6,5.5-33.9
		c-49.4,24.1-98.9,23.8-149.4-0.1c1.1-2.1,1.5-3.5,2.3-4.3c25.9-28.1,33.1-61.4,27.8-99.2c-2.5-17.3-1.3-35.1-1.5-52.6
		c-0.1-6.6,0.8-13.2,1-19.8c0.5-15-1.1-31.4-32.5-40.3c-5.5-1.6-11.4-1.6-17-1.4c-19.6,0.6-23,5.6-29,19.5
		c-20.2,46.7-24.7,95-16,144.7c3.7,21.1,9.2,41.8,14.2,63.7c-1.2-1.3-2.2-2-2.5-2.9C-4.4,324-12.4,236.5,22,147.8
		C42.7,94.7,77.2,53,127.1,27.1C189.2-5.2,253.9-7.8,319.6,14.9c69.8,24.1,124.5,69.3,168,129.8C491.5,150.2,495.8,155.4,500,161z
		 M130.8,196.9c21.1-31,85-91.3,173.8-40l13.5-4.7c-5-19.5-57.1-55.4-103.9-56.2c-78.1-1.3-128.4,39.3-139,54.4
		C97.8,155.2,118,173.5,130.8,196.9z"/>
</svg>
