<?xml version="1.0" encoding="iso-8859-1"?>
<svg xmlns="http://www.w3.org/2000/svg" viewBox="0 0 40 40">
    <path d="M4.03 17.984C4.063 8.667 10.797 1.987 19.026 1.987l0 0 c8.228 0 14.963 6.68 14.995 15.997l0.001 16.935c0 0.181-0.104 0.336-0.272 0.406c-0.167 0.069-0.351 0.032-0.479-0.096 l-3.159-3.159c-0.6-0.6-1.578-0.6-2.178 0l-2.821 2.821c-0.6 0.6-1.578 0.6-2.178 0l-2.821-2.821c-0.599-0.6-1.578-0.6-2.177 0 l-2.821 2.821c-0.6 0.6-1.578 0.6-2.178 0l-2.821-2.821c-0.6-0.6-1.578-0.6-2.178 0L4.78 35.229 c-0.128 0.128-0.312 0.165-0.479 0.096s-0.271-0.225-0.271-0.406L4.03 17.984L4.03 17.984z M25.024 12.985 c-2.208 0-3.999 1.791-3.999 3.999c0 2.209 1.791 3.999 3.999 3.999s3.999-1.79 3.999-3.999 C29.023 14.776 27.233 12.985 25.024 12.985L25.024 12.985z M13.027 12.985c-2.208 0-3.999 1.791-3.999 3.999 c0 2.209 1.791 3.999 3.999 3.999c2.208 0 3.999-1.79 3.999-3.999C17.026 14.776 15.235 12.985 13.027 12.985z"/>
</svg>
