<svg version="1.1" viewBox="0 0 32 32"><path d="M 6 3 L 6 29 L 17 29 L 17 27 L 8 27 L 8 5 L 18 5 L 18 11 L 24 11 L 24 16 L 26 16 L 26 9.5859375 L 19.414062 3 L 6 3 z M 20 6.4140625 L 22.585938 9 L 20 9 L 20 6.4140625 z M 20.285156 13.462891 L 16 18.464844 L 12.570312 14.464844 L 9.2402344 18.349609 L 10.759766 19.650391 L 12.570312 17.535156 L 16 21.535156 L 19 18.037109 L 19 16 L 22.460938 16 L 20.285156 13.462891 z M 21 18 L 21 27 L 19 27 L 19 29 C 19 30.64497 20.35503 32 22 32 L 29 32 C 30.64497 32 32 30.64497 32 29 L 32 18 L 21 18 z M 23 20 L 30 20 L 30 29 C 30 29.56503 29.56503 30 29 30 C 28.43497 30 28 29.56503 28 29 L 28 28 L 28 27 L 23 27 L 23 20 z M 21 29 L 26 29 C 26 29.351843 26.07394 29.685108 26.1875 30 L 22 30 C 21.43497 30 21 29.56503 21 29 z"/></svg>