<svg version="1.1" viewBox="0 0 50 50"><path d="M 15 4 C 7.28125 4 1 10.28125 1 18 C 1 23.640625 4.363281 28.503906 9.179688 30.71875 C 10 25.015625 13.828125 20.277344 19.011719 18.175781 C 19.007813 18.117188 19 18.058594 19 18 C 19 13.691406 20.71875 9.78125 23.5 6.902344 C 21.140625 5.089844 18.199219 4 15 4 Z M 35 4 C 31.800781 4 28.859375 5.089844 26.5 6.902344 C 29.28125 9.78125 31 13.691406 31 18 C 31 18.058594 30.992188 18.117188 30.988281 18.175781 C 36.171875 20.277344 39.996094 25.015625 40.816406 30.71875 C 45.636719 28.503906 49 23.640625 49 18 C 49 10.28125 42.71875 4 35 4 Z M 25 8.21875 C 22.636719 10.640625 21.148438 13.90625 21.023438 17.519531 C 22.296875 17.191406 23.625 17 25 17 C 26.375 17 27.703125 17.191406 28.976563 17.519531 C 28.851563 13.90625 27.363281 10.640625 25 8.21875 Z M 25 19 C 23.644531 19 22.332031 19.195313 21.09375 19.558594 C 21.09375 19.558594 21.09375 19.5625 21.09375 19.5625 C 21.183594 20.359375 21.339844 21.136719 21.558594 21.886719 C 21.664063 22.257813 21.785156 22.621094 21.921875 22.980469 C 21.921875 22.984375 21.925781 22.984375 21.925781 22.988281 C 22.0625 23.347656 22.214844 23.703125 22.378906 24.046875 C 22.421875 24.132813 22.472656 24.210938 22.515625 24.296875 C 22.644531 24.554688 22.773438 24.808594 22.921875 25.058594 C 22.921875 25.058594 22.921875 25.058594 22.921875 25.0625 C 23.117188 25.390625 23.320313 25.710938 23.539063 26.019531 C 23.539063 26.023438 23.542969 26.023438 23.542969 26.027344 C 23.761719 26.335938 23.992188 26.636719 24.234375 26.925781 C 24.476563 27.21875 24.730469 27.5 24.996094 27.773438 C 24.996094 27.777344 25 27.777344 25 27.78125 C 26.59375 26.148438 27.792969 24.132813 28.441406 21.886719 C 28.464844 21.808594 28.476563 21.734375 28.5 21.65625 C 28.683594 20.980469 28.824219 20.28125 28.90625 19.566406 C 28.90625 19.566406 28.90625 19.566406 28.90625 19.5625 C 28.597656 19.472656 28.28125 19.394531 27.964844 19.324219 C 27.007813 19.113281 26.015625 19 25 19 Z M 19.183594 20.28125 C 17.542969 21.035156 16.078125 22.09375 14.851563 23.382813 C 14.648438 23.597656 14.449219 23.820313 14.257813 24.046875 C 14.066406 24.273438 13.886719 24.507813 13.707031 24.75 C 13.355469 25.226563 13.035156 25.730469 12.746094 26.25 C 12.601563 26.511719 12.464844 26.78125 12.335938 27.050781 C 12.078125 27.59375 11.859375 28.15625 11.671875 28.734375 C 11.394531 29.597656 11.199219 30.503906 11.09375 31.433594 C 12.335938 31.796875 13.644531 32 15 32 C 15.398438 32 15.796875 31.984375 16.1875 31.949219 C 18.925781 31.71875 21.441406 30.691406 23.503906 29.105469 C 23.503906 29.101563 23.5 29.101563 23.5 29.097656 C 23.410156 29.003906 23.332031 28.90625 23.246094 28.8125 C 23.054688 28.601563 22.859375 28.398438 22.679688 28.179688 C 22.417969 27.863281 22.171875 27.542969 21.9375 27.207031 C 21.933594 27.207031 21.933594 27.203125 21.933594 27.203125 C 21.695313 26.867188 21.472656 26.519531 21.261719 26.167969 C 21.050781 25.8125 20.855469 25.453125 20.671875 25.082031 C 20.671875 25.082031 20.671875 25.082031 20.671875 25.078125 C 20.652344 25.039063 20.636719 24.996094 20.613281 24.957031 C 20.09375 23.878906 19.683594 22.734375 19.414063 21.542969 C 19.414063 21.539063 19.414063 21.539063 19.414063 21.539063 C 19.320313 21.125 19.242188 20.707031 19.183594 20.28125 Z M 30.816406 20.28125 C 30.695313 21.128906 30.503906 21.957031 30.253906 22.761719 C 30.253906 22.761719 30.257813 22.761719 30.253906 22.761719 C 30.132813 23.160156 29.992188 23.554688 29.835938 23.941406 C 29.0625 25.875 27.917969 27.621094 26.5 29.097656 C 26.792969 29.324219 27.097656 29.539063 27.410156 29.742188 C 29.597656 31.164063 32.203125 32 35 32 C 35.679688 32 36.34375 31.949219 36.996094 31.855469 C 37.433594 31.789063 37.859375 31.699219 38.285156 31.59375 C 38.492188 31.542969 38.699219 31.496094 38.902344 31.4375 C 38.902344 31.433594 38.90625 31.433594 38.90625 31.433594 C 38.558594 28.328125 37.191406 25.535156 35.148438 23.382813 C 34.945313 23.167969 34.734375 22.960938 34.515625 22.757813 C 34.296875 22.554688 34.074219 22.359375 33.84375 22.171875 C 32.925781 21.421875 31.910156 20.78125 30.816406 20.28125 Z M 24.988281 30.464844 C 22.25 32.667969 18.785156 34 15 34 C 13.625 34 12.296875 33.808594 11.023438 33.480469 C 11.28125 40.976563 17.441406 47 25 47 C 32.558594 47 38.71875 40.976563 38.976563 33.480469 C 37.703125 33.808594 36.375 34 35 34 C 31.210938 34 27.730469 32.671875 24.988281 30.464844 Z"/></svg>