<svg version="1.1" viewBox="0 0 32 32"><path d="M 10 4 C 8.355469 4 7 5.355469 7 7 C 7 8.292969 7.84375 9.394531 9 9.8125 L 9 22.1875 C 7.84375 22.605469 7 23.707031 7 25 C 7 26.644531 8.355469 28 10 28 C 11.644531 28 13 26.644531 13 25 C 13 23.707031 12.15625 22.605469 11 22.1875 L 11 17.875 C 12.28125 19.1875 14.070313 20 16.03125 20 L 19.1875 20 C 19.605469 21.15625 20.707031 22 22 22 C 23.644531 22 25 20.644531 25 19 C 25 17.355469 23.644531 16 22 16 C 20.707031 16 19.605469 16.84375 19.1875 18 L 16.03125 18 C 13.265625 18 11 15.734375 11 12.96875 L 11 9.8125 C 12.15625 9.394531 13 8.292969 13 7 C 13 5.355469 11.644531 4 10 4 Z M 10 6 C 10.5625 6 11 6.4375 11 7 C 11 7.5625 10.5625 8 10 8 C 9.4375 8 9 7.5625 9 7 C 9 6.4375 9.4375 6 10 6 Z M 22 18 C 22.5625 18 23 18.4375 23 19 C 23 19.5625 22.5625 20 22 20 C 21.4375 20 21 19.5625 21 19 C 21 18.4375 21.4375 18 22 18 Z M 10 24 C 10.5625 24 11 24.4375 11 25 C 11 25.5625 10.5625 26 10 26 C 9.4375 26 9 25.5625 9 25 C 9 24.4375 9.4375 24 10 24 Z"/></svg>